{"title":"Men.in.Black.3.2012.V2.HD.TS.XViD.AC3-TODE By bobiras2009","uid":7322322,"size":739920092,"categoryP":"video","categoryS":"movies","magnet":"?xt=urn:btih:b9f934ed89c2ea1053a94226611d80e2a6350268&amp;dn=Men.in.Black.3.2012.V2.HD.TS.XViD.AC3-TODE+By+bobiras2009&amp;tr=udp%3A%2F%2Ftracker.openbittorrent.com%3A80&amp;tr=udp%3A%2F%2Fopen.demonii.com%3A1337&amp;tr=udp%3A%2F%2Ftracker.coppersurfer.tk%3A6969&amp;tr=udp%3A%2F%2Fexodus.desync.com%3A6969","seeders":1,"leechers":0,"uploader":"bobiras2009","files":-1,"time":1338656116,"description":"Format                                   : AVI\nFormat/Info                              : Audio Video Interleave\nFile size                                : 704 MiB\nDuration                                 : 1h 37mn\nOverall bit rate                         : 1 007 Kbps\nWriting application                      : Lavf54.3.100\n\nVideo\nID                                       : 0\nFormat                                   : MPEG-4 Visual\nFormat profile                           : Simple@L3\nFormat settings, BVOP                    : No\nFormat settings, QPel                    : No\nFormat settings, GMC                     : No warppoints\nFormat settings, Matrix                  : Default (H.263)\nCodec ID                                 : XVID\nCodec ID/Hint                            : XviD\nDuration                                 : 1h 37mn\nBit rate                                 : 900 Kbps\nWidth                                    : 640 pixels\nHeight                                   : 304 pixels\nDisplay aspect ratio                     : 2.045\nFrame rate                               : 23.976 fps\nColor space                              : YUV\nChroma subsampling                       : 4:2:0\nBit depth                                : 8 bits\nScan type                                : Progressive\nCompression mode                         : Lossy\nBits/(Pixel*Frame)                       : 0.193\nStream size                              : 630 MiB (89%)\nWriting library                          : XviD 64\n\nAudio\nID                                       : 1\nFormat                                   : AC-3\nFormat/Info                              : Audio Coding 3\nMode extension                           : CM (complete main)\nFormat settings, Endianness              : Big\nCodec ID                                 : 2000\nDuration                                 : 1h 37mn\nBit rate mode                            : Constant\nBit rate                                 : 96.0 Kbps\nChannel(s)                               : 2 channels\nChannel positions                        : Front: L R\nSampling rate                            : 48.0 KHz\nBit depth                                : 16 bits\nCompression mode                         : Lossy\nStream size                              : 67.2 MiB (10%)\nAlignment                                : Aligned on interleaves\nInterleave, duration                     : 32 ms (0.77 video frame)\n\n &lt;a href=&quot;\nhttp://www.imdb.com/title/tt1409024/&quot; rel=&quot;nofollow&quot; target=&quot;_NEW&quot;&gt;\nhttp://www.imdb.com/title/tt1409024/&lt;/a&gt;\n\n\nScreens to see the quality:\n\n &lt;a href=&quot;\nhttp://prikachi.com/images/86/4841086P.png&quot; rel=&quot;nofollow&quot; target=&quot;_NEW&quot;&gt;\nhttp://prikachi.com/images/86/4841086P.png&lt;/a&gt;\n\n &lt;a href=&quot;\nhttp://prikachi.com/images/85/4841085q.png&quot; rel=&quot;nofollow&quot; target=&quot;_NEW&quot;&gt;\nhttp://prikachi.com/images/85/4841085q.png&lt;/a&gt;\n\n &lt;a href=&quot;\nhttp://prikachi.com/images/84/4841084a.png&quot; rel=&quot;nofollow&quot; target=&quot;_NEW&quot;&gt;\nhttp://prikachi.com/images/84/4841084a.png&lt;/a&gt;\n\n &lt;a href=&quot;\nhttp://prikachi.com/images/83/4841083E.png&quot; rel=&quot;nofollow&quot; target=&quot;_NEW&quot;&gt;\nhttp://prikachi.com/images/83/4841083E.png&lt;/a&gt;","torrent":{"xt":"urn:btih:b9f934ed89c2ea1053a94226611d80e2a6350268","amp;dn":"Men.in.Black.3.2012.V2.HD.TS.XViD.AC3-TODE+By+bobiras2009","amp;tr":["udp%3A%2F%2Ftracker.openbittorrent.com%3A80","udp%3A%2F%2Fopen.demonii.com%3A1337","udp%3A%2F%2Ftracker.coppersurfer.tk%3A6969","udp%3A%2F%2Fexodus.desync.com%3A6969"],"infoHash":"b9f934ed89c2ea1053a94226611d80e2a6350268","infoHashBuffer":{"type":"Buffer","data":[185,249,52,237,137,194,234,16,83,169,66,38,97,29,128,226,166,53,2,104]},"announce":[],"urlList":[]}}